<svg width="150" height="30" viewBox="0 0 299 58" fill="none" xmlns="http://www.w3.org/2000/svg">
<path d="M20.6367 57.7422C17.5195 57.7422 14.724 57.2474 12.25 56.2578C9.77604 55.2435 7.67318 53.8457 5.94141 52.0645C4.23438 50.2832 2.92318 48.2174 2.00781 45.8672C1.09245 43.4922 0.634766 40.9688 0.634766 38.2969V36.8125C0.634766 33.7695 1.06771 30.9863 1.93359 28.4629C2.79948 25.9395 4.03646 23.75 5.64453 21.8945C7.27734 20.0391 9.25651 18.6165 11.582 17.627C13.9076 16.6126 16.5299 16.1055 19.4492 16.1055C22.2943 16.1055 24.8177 16.5755 27.0195 17.5156C29.2214 18.4557 31.0645 19.7917 32.5488 21.5234C34.0579 23.2552 35.196 25.3333 35.9629 27.7578C36.7298 30.1576 37.1133 32.8294 37.1133 35.7734V40.2266H5.19922V33.1016H26.6113V32.2852C26.6113 30.8008 26.3392 29.4772 25.7949 28.3145C25.2754 27.127 24.4837 26.1868 23.4199 25.4941C22.3561 24.8014 20.9954 24.4551 19.3379 24.4551C17.9277 24.4551 16.7155 24.7643 15.7012 25.3828C14.6868 26.0013 13.8581 26.8672 13.2148 27.9805C12.5964 29.0938 12.1263 30.4049 11.8047 31.9141C11.5078 33.3984 11.3594 35.0312 11.3594 36.8125V38.2969C11.3594 39.9049 11.582 41.3893 12.0273 42.75C12.4974 44.1107 13.153 45.2858 13.9941 46.2754C14.86 47.265 15.8991 48.0319 17.1113 48.5762C18.3483 49.1204 19.7461 49.3926 21.3047 49.3926C23.2344 49.3926 25.028 49.0215 26.6855 48.2793C28.3678 47.5124 29.8151 46.362 31.0273 44.8281L36.2227 50.4688C35.3815 51.681 34.2311 52.8438 32.7715 53.957C31.3366 55.0703 29.6048 55.9857 27.5762 56.7031C25.5475 57.3958 23.2344 57.7422 20.6367 57.7422ZM75.1504 48.6504V57H44.6465V48.6504H75.1504ZM74.5566 23.0078L48.9512 57H41.7891V50.6543L67.2832 16.8477H74.5566V23.0078ZM70.7715 16.8477V25.2344H42.3828V16.8477H70.7715ZM99.7539 57.7422C96.6367 57.7422 93.8411 57.2474 91.3672 56.2578C88.8932 55.2435 86.7904 53.8457 85.0586 52.0645C83.3516 50.2832 82.0404 48.2174 81.125 45.8672C80.2096 43.4922 79.752 40.9688 79.752 38.2969V36.8125C79.752 33.7695 80.1849 30.9863 81.0508 28.4629C81.9167 25.9395 83.1536 23.75 84.7617 21.8945C86.3945 20.0391 88.3737 18.6165 90.6992 17.627C93.0247 16.6126 95.6471 16.1055 98.5664 16.1055C101.411 16.1055 103.935 16.5755 106.137 17.5156C108.339 18.4557 110.182 19.7917 111.666 21.5234C113.175 23.2552 114.313 25.3333 115.08 27.7578C115.847 30.1576 116.23 32.8294 116.23 35.7734V40.2266H84.3164V33.1016H105.729V32.2852C105.729 30.8008 105.456 29.4772 104.912 28.3145C104.393 27.127 103.601 26.1868 102.537 25.4941C101.473 24.8014 100.113 24.4551 98.4551 24.4551C97.0449 24.4551 95.8327 24.7643 94.8184 25.3828C93.804 26.0013 92.9753 26.8672 92.332 27.9805C91.7135 29.0938 91.2435 30.4049 90.9219 31.9141C90.625 33.3984 90.4766 35.0312 90.4766 36.8125V38.2969C90.4766 39.9049 90.6992 41.3893 91.1445 42.75C91.6146 44.1107 92.2702 45.2858 93.1113 46.2754C93.9772 47.265 95.0163 48.0319 96.2285 48.5762C97.4655 49.1204 98.8633 49.3926 100.422 49.3926C102.352 49.3926 104.145 49.0215 105.803 48.2793C107.485 47.5124 108.932 46.362 110.145 44.8281L115.34 50.4688C114.499 51.681 113.348 52.8438 111.889 53.957C110.454 55.0703 108.722 55.9857 106.693 56.7031C104.665 57.3958 102.352 57.7422 99.7539 57.7422ZM132.781 25.4199V57H122.094V16.8477H132.113L132.781 25.4199ZM131.223 35.5137H128.328C128.328 32.5449 128.712 29.873 129.479 27.498C130.245 25.0983 131.322 23.0573 132.707 21.375C134.092 19.668 135.738 18.3691 137.643 17.4785C139.572 16.5632 141.725 16.1055 144.1 16.1055C145.98 16.1055 147.699 16.3776 149.258 16.9219C150.816 17.4661 152.152 18.332 153.266 19.5195C154.404 20.707 155.27 22.278 155.863 24.2324C156.482 26.1868 156.791 28.5742 156.791 31.3945V57H146.029V31.3574C146.029 29.5762 145.782 28.1908 145.287 27.2012C144.792 26.2116 144.062 25.5189 143.098 25.123C142.158 24.7025 140.995 24.4922 139.609 24.4922C138.174 24.4922 136.925 24.7767 135.861 25.3457C134.822 25.9147 133.956 26.7064 133.264 27.7207C132.596 28.7103 132.089 29.873 131.742 31.209C131.396 32.5449 131.223 33.9798 131.223 35.5137ZM186.59 47.9453V30.0586C186.59 28.7721 186.38 27.6712 185.959 26.7559C185.538 25.8158 184.883 25.0859 183.992 24.5664C183.126 24.0469 182.001 23.7871 180.615 23.7871C179.428 23.7871 178.401 23.9974 177.535 24.418C176.669 24.8138 176.001 25.3952 175.531 26.1621C175.061 26.9043 174.826 27.7826 174.826 28.7969H164.139C164.139 27.0898 164.535 25.4694 165.326 23.9355C166.118 22.4017 167.268 21.0534 168.777 19.8906C170.286 18.7031 172.08 17.7754 174.158 17.1074C176.261 16.4395 178.611 16.1055 181.209 16.1055C184.326 16.1055 187.097 16.625 189.521 17.6641C191.946 18.7031 193.851 20.2617 195.236 22.3398C196.646 24.418 197.352 27.0156 197.352 30.1328V47.3145C197.352 49.5163 197.488 51.3223 197.76 52.7324C198.032 54.1178 198.428 55.3301 198.947 56.3691V57H188.148C187.629 55.9115 187.233 54.5508 186.961 52.918C186.714 51.2604 186.59 49.6029 186.59 47.9453ZM188 32.5449L188.074 38.5938H182.1C180.689 38.5938 179.465 38.7546 178.426 39.0762C177.387 39.3978 176.533 39.8555 175.865 40.4492C175.197 41.0182 174.702 41.6862 174.381 42.4531C174.084 43.2201 173.936 44.0612 173.936 44.9766C173.936 45.8919 174.146 46.7207 174.566 47.4629C174.987 48.1803 175.593 48.7493 176.385 49.1699C177.176 49.5658 178.104 49.7637 179.168 49.7637C180.776 49.7637 182.174 49.4421 183.361 48.7988C184.549 48.1556 185.464 47.3639 186.107 46.4238C186.775 45.4837 187.122 44.5931 187.146 43.752L189.967 48.2793C189.571 49.2936 189.027 50.3451 188.334 51.4336C187.666 52.5221 186.812 53.5488 185.773 54.5137C184.734 55.4538 183.485 56.2331 182.025 56.8516C180.566 57.4453 178.834 57.7422 176.83 57.7422C174.282 57.7422 171.969 57.235 169.891 56.2207C167.837 55.1816 166.204 53.7591 164.992 51.9531C163.805 50.1224 163.211 48.0443 163.211 45.7188C163.211 43.6159 163.607 41.748 164.398 40.1152C165.19 38.4824 166.353 37.1094 167.887 35.9961C169.445 34.8581 171.387 34.0046 173.713 33.4355C176.038 32.8418 178.735 32.5449 181.803 32.5449H188ZM216.277 25.6055V57H205.59V16.8477H215.646L216.277 25.6055ZM228.375 16.5879L228.189 26.4961C227.67 26.4219 227.039 26.36 226.297 26.3105C225.579 26.2363 224.924 26.1992 224.33 26.1992C222.821 26.1992 221.51 26.3971 220.396 26.793C219.308 27.1641 218.393 27.7207 217.65 28.4629C216.933 29.2051 216.389 30.1081 216.018 31.1719C215.671 32.2357 215.473 33.4479 215.424 34.8086L213.271 34.1406C213.271 31.543 213.531 29.1556 214.051 26.9785C214.57 24.7767 215.325 22.8594 216.314 21.2266C217.329 19.5938 218.566 18.332 220.025 17.4414C221.485 16.5508 223.155 16.1055 225.035 16.1055C225.629 16.1055 226.235 16.1549 226.854 16.2539C227.472 16.3281 227.979 16.4395 228.375 16.5879ZM256.393 48.2422V0H267.154V57H257.469L256.393 48.2422ZM231.01 37.4062V36.627C231.01 33.5592 231.356 30.776 232.049 28.2773C232.742 25.7539 233.756 23.5892 235.092 21.7832C236.428 19.9772 238.073 18.5794 240.027 17.5898C241.982 16.6003 244.208 16.1055 246.707 16.1055C249.057 16.1055 251.111 16.6003 252.867 17.5898C254.648 18.5794 256.158 19.9896 257.395 21.8203C258.656 23.6263 259.671 25.7663 260.438 28.2402C261.204 30.6895 261.761 33.3737 262.107 36.293V38C261.761 40.7956 261.204 43.3932 260.438 45.793C259.671 48.1927 258.656 50.2956 257.395 52.1016C256.158 53.8828 254.648 55.2682 252.867 56.2578C251.086 57.2474 249.008 57.7422 246.633 57.7422C244.134 57.7422 241.908 57.235 239.953 56.2207C238.023 55.2064 236.391 53.7839 235.055 51.9531C233.743 50.1224 232.742 47.9701 232.049 45.4961C231.356 43.0221 231.01 40.3255 231.01 37.4062ZM241.697 36.627V37.4062C241.697 39.0638 241.821 40.61 242.068 42.0449C242.34 43.4798 242.773 44.7539 243.367 45.8672C243.986 46.9557 244.777 47.8092 245.742 48.4277C246.732 49.0215 247.932 49.3184 249.342 49.3184C251.173 49.3184 252.682 48.9102 253.869 48.0938C255.057 47.2526 255.96 46.1022 256.578 44.6426C257.221 43.1829 257.592 41.5007 257.691 39.5957V34.7344C257.617 33.1758 257.395 31.778 257.023 30.541C256.677 29.2793 256.158 28.2031 255.465 27.3125C254.797 26.4219 253.956 25.7292 252.941 25.2344C251.952 24.7396 250.777 24.4922 249.416 24.4922C248.031 24.4922 246.843 24.8138 245.854 25.457C244.864 26.0755 244.06 26.929 243.441 28.0176C242.848 29.1061 242.402 30.3926 242.105 31.877C241.833 33.3366 241.697 34.9199 241.697 36.627ZM286.191 25.6055V57H275.504V16.8477H285.561L286.191 25.6055ZM298.289 16.5879L298.104 26.4961C297.584 26.4219 296.953 26.36 296.211 26.3105C295.493 26.2363 294.838 26.1992 294.244 26.1992C292.735 26.1992 291.424 26.3971 290.311 26.793C289.222 27.1641 288.307 27.7207 287.564 28.4629C286.847 29.2051 286.303 30.1081 285.932 31.1719C285.585 32.2357 285.387 33.4479 285.338 34.8086L283.186 34.1406C283.186 31.543 283.445 29.1556 283.965 26.9785C284.484 24.7767 285.239 22.8594 286.229 21.2266C287.243 19.5938 288.48 18.332 289.939 17.4414C291.399 16.5508 293.069 16.1055 294.949 16.1055C295.543 16.1055 296.149 16.1549 296.768 16.2539C297.386 16.3281 297.893 16.4395 298.289 16.5879Z" fill="url(#paint0_linear_13_4)" style="mix-blend-mode:screen"/>
<defs>
<linearGradient id="paint0_linear_13_4" x1="-2" y1="40.1042" x2="390.998" y2="38.7604" gradientUnits="userSpaceOnUse">
<stop offset="0.0572917" stop-color="#3C60FC"/>
<stop offset="0.262257" stop-color="#E04574" stop-opacity="0.67"/>
<stop offset="0.402414" stop-color="#00979F"/>
<stop offset="0.568061" stop-color="#009868"/>
<stop offset="0.77701" stop-color="#0094D4"/>
<stop offset="0.913339" stop-color="#007DFF"/>
</linearGradient>
</defs>
</svg>
