<svg width="32" height="32" viewBox="0 0 32 32" fill="none" xmlns="http://www.w3.org/2000/svg">
<path fill-rule="evenodd" clip-rule="evenodd" d="M16 6.40002C12.0178 6.40002 9.52891 8.53336 8.53335 12.8C10.0267 10.6667 11.7689 9.86669 13.76 10.4C14.8961 10.7043 15.708 11.5873 16.6068 12.5648C18.0709 14.1571 19.7655 16 23.4667 16C27.449 16 29.9377 13.8667 30.9333 9.60002C29.44 11.7333 27.6977 12.5333 25.7067 12C24.5707 11.6957 23.7587 10.8127 22.86 9.83522C21.3959 8.24293 19.7012 6.40002 16 6.40002ZM8.53335 16C4.55112 16 2.06224 18.1333 1.06668 22.4C2.56001 20.2666 4.30224 19.4666 6.29335 20C7.42939 20.3043 8.24138 21.1873 9.14013 22.1647C10.6043 23.757 12.2988 25.6 16 25.6C19.9822 25.6 22.4711 23.4667 23.4667 19.2C21.9733 21.3333 20.2311 22.1334 18.24 21.6C17.104 21.2957 16.292 20.4127 15.3932 19.4352C13.9291 17.8429 12.2346 16 8.53335 16Z" stroke="#F5F7FF" stroke-linejoin="round"/>
</svg>
