<svg width="32" height="32" viewBox="0 0 32 32" fill="none" xmlns="http://www.w3.org/2000/svg">
<g clip-path="url(#clip0_16_57)">
<path d="M19.264 21.6534C18.5501 22.6686 17.772 23.6372 16.9347 24.5534C19.164 26.7174 21.2387 27.7307 22.388 27.0654C23.54 26.4014 23.6987 24.0987 22.94 21.0867C21.8027 21.34 20.5667 21.532 19.264 21.6534ZM17.5173 21.7694C16.5062 21.8112 15.4938 21.8112 14.4827 21.7694C14.9853 22.4254 15.4933 23.0334 16 23.588C16.5067 23.0334 17.0133 22.4254 17.5173 21.7694ZM24.2373 11.244C27.7907 12.2627 30.1107 13.956 30.1107 16C30.1107 18.044 27.7907 19.7374 24.2373 20.756C25.1307 24.3427 24.8253 27.1987 23.056 28.22C21.2853 29.2427 18.6587 28.08 16 25.5134C13.3413 28.08 10.7147 29.2427 8.94401 28.22C7.17468 27.1987 6.86801 24.3427 7.76268 20.756C4.20934 19.7374 1.88934 18.044 1.88934 16C1.88934 13.956 4.20934 12.2627 7.76268 11.244C6.86934 7.65736 7.17468 4.80136 8.94401 3.78003C10.7147 2.75736 13.3413 3.92003 16 6.48669C18.6587 3.92003 21.2853 2.75736 23.056 3.78003C24.8253 4.80136 25.132 7.65736 24.2373 11.244ZM22.94 10.9134C23.7 7.90003 23.54 5.59869 22.3893 4.93469C21.2387 4.26936 19.164 5.28269 16.936 7.44669C17.724 8.30403 18.508 9.27869 19.264 10.3467C20.568 10.4667 21.8027 10.6587 22.94 10.9134ZM9.06001 21.0867C8.30001 24.1 8.46001 26.4014 9.61068 27.0654C10.7613 27.7307 12.836 26.7174 15.064 24.5534C14.2271 23.6372 13.4495 22.6686 12.736 21.6534C11.4999 21.5429 10.272 21.3536 9.06001 21.0867ZM14.4827 10.2307C15.4938 10.1888 16.5062 10.1888 17.5173 10.2307C17.038 9.60331 16.5318 8.99696 16 8.41336C15.4933 8.96803 14.9867 9.57469 14.4827 10.2307ZM12.736 10.3467C13.4504 9.33142 14.2289 8.36278 15.0667 7.44669C12.836 5.28269 10.76 4.26936 9.61201 4.93469C8.46001 5.59869 8.30134 7.90136 9.06001 10.9134C10.1973 10.66 11.4333 10.468 12.736 10.3467ZM18.5253 20.3734C19.4745 18.9805 20.3181 17.5187 21.0493 16C20.3181 14.4814 19.4745 13.0195 18.5253 11.6267C16.8441 11.5008 15.1559 11.5008 13.4747 11.6267C12.5256 13.0195 11.6819 14.4814 10.9507 16C11.6819 17.5187 12.5256 18.9805 13.4747 20.3734C15.1559 20.4992 16.8441 20.4992 18.5253 20.3734ZM20.2373 20.1987C21.0573 20.092 21.8373 19.9547 22.5707 19.7934C22.3309 19.041 22.0586 18.2995 21.7547 17.5707C21.2853 18.4668 20.7791 19.3431 20.2373 20.1974V20.1987ZM11.7627 11.8C10.9427 11.9067 10.1627 12.044 9.42934 12.2054C9.65601 12.92 9.92801 13.664 10.2453 14.428C10.7147 13.5319 11.2209 12.6543 11.7627 11.8ZM9.42934 19.792C10.1627 19.9534 10.9427 20.0894 11.7627 20.1974C11.2209 19.3431 10.7147 18.4668 10.2453 17.5707C9.92801 18.3334 9.65601 19.0774 9.42934 19.792ZM8.12534 19.4654C8.47334 18.3534 8.92534 17.188 9.47201 15.9987C8.92534 14.8094 8.47334 13.644 8.12534 12.532C5.13601 13.3814 3.22268 14.6707 3.22268 15.9987C3.22268 17.3267 5.13601 18.616 8.12534 19.4654ZM22.5707 12.2054C21.8373 12.044 21.0573 11.908 20.2373 11.8C20.7791 12.6543 21.2853 13.5306 21.7547 14.4267C22.072 13.664 22.344 12.92 22.5707 12.2054ZM23.8747 12.532C23.5267 13.644 23.0747 14.8094 22.528 15.9987C23.0747 17.188 23.5267 18.3534 23.8747 19.4654C26.864 18.616 28.7773 17.3267 28.7773 15.9987C28.7773 14.6707 26.864 13.3814 23.8747 12.532ZM16 18.5067C15.6708 18.5067 15.3449 18.4419 15.0408 18.3159C14.7366 18.1899 14.4603 18.0053 14.2275 17.7725C13.9948 17.5397 13.8101 17.2634 13.6842 16.9593C13.5582 16.6552 13.4933 16.3292 13.4933 16C13.4933 15.6708 13.5582 15.3449 13.6842 15.0408C13.8101 14.7366 13.9948 14.4603 14.2275 14.2275C14.4603 13.9948 14.7366 13.8101 15.0408 13.6842C15.3449 13.5582 15.6708 13.4934 16 13.4934C16.6648 13.4934 17.3024 13.7575 17.7725 14.2275C18.2426 14.6976 18.5067 15.3352 18.5067 16C18.5067 16.6648 18.2426 17.3024 17.7725 17.7725C17.3024 18.2426 16.6648 18.5067 16 18.5067Z" fill="#F5F7FF"/>
</g>
<defs>
<clipPath id="clip0_16_57">
<rect width="32" height="32" fill="white"/>
</clipPath>
</defs>
</svg>
