<svg width="32" height="32" viewBox="0 0 32 32" fill="none" xmlns="http://www.w3.org/2000/svg">
<path d="M16.6667 32C16.6053 32 16.544 31.992 16.484 31.9746L7.15068 29.308C6.88668 29.232 6.69601 29.0026 6.66934 28.7293L4.66934 7.39596C4.65201 7.20929 4.71468 7.02396 4.84001 6.88529C4.96668 6.74529 5.14534 6.66663 5.33334 6.66663H26.6667C26.8547 6.66663 27.0333 6.74529 27.16 6.88529C27.2867 7.02396 27.348 7.20929 27.3307 7.39596L25.3307 28.7293C25.3053 28.992 25.128 29.216 24.8773 29.2986L16.8773 31.9653C16.8093 31.988 16.7373 32 16.6667 32ZM7.95468 28.1506L16.652 30.6346L24.044 28.1706L25.9347 7.99996H6.06534L7.95468 28.1506Z" fill="#F5F7FF"/>
<path d="M16.6667 26.6667C16.6053 26.6667 16.544 26.6587 16.484 26.6413L11.8173 25.308C11.588 25.2427 11.4107 25.0587 11.3533 24.828L10.6867 22.1613C10.5973 21.804 10.8147 21.4427 11.172 21.3533C11.5267 21.264 11.8907 21.48 11.98 21.8387L12.5533 24.132L16.6667 25.3067L20.72 24.148L21.9213 13.3333H10C9.63201 13.3333 9.33334 13.0347 9.33334 12.6667C9.33334 12.2987 9.63201 12 10 12H22.6667C22.856 12 23.0373 12.0813 23.164 12.2227C23.2907 12.364 23.3507 12.5533 23.3307 12.7413L21.9973 24.7413C21.968 25.0107 21.7773 25.2347 21.5173 25.3093L16.8507 26.6427C16.7893 26.6587 16.728 26.6667 16.6667 26.6667Z" fill="#F5F7FF"/>
<path d="M22 18.6667H10.6667C10.2987 18.6667 10 18.368 10 18C10 17.632 10.2987 17.3334 10.6667 17.3334H22C22.368 17.3334 22.6667 17.632 22.6667 18C22.6667 18.368 22.368 18.6667 22 18.6667Z" fill="#F5F7FF"/>
<path d="M12 4H9.33335C8.96535 4 8.66669 3.70133 8.66669 3.33333V0.666667C8.66669 0.298667 8.96535 0 9.33335 0H12C12.368 0 12.6667 0.298667 12.6667 0.666667C12.6667 1.03467 12.368 1.33333 12 1.33333H10V2.66667H12C12.368 2.66667 12.6667 2.96533 12.6667 3.33333C12.6667 3.70133 12.368 4 12 4Z" fill="#F5F7FF"/>
<path d="M17.3334 4H14.6667C14.2987 4 14 3.70133 14 3.33333C14 2.96533 14.2987 2.66667 14.6667 2.66667H15.724L14.196 1.13867C14.0054 0.948 13.948 0.661333 14.052 0.412C14.1534 0.162667 14.3974 0 14.6667 0H17.3334C17.7014 0 18 0.298667 18 0.666667C18 1.03467 17.7014 1.33333 17.3334 1.33333H16.276L17.804 2.86133C17.9947 3.052 18.052 3.33867 17.948 3.588C17.8467 3.83733 17.6027 4 17.3334 4Z" fill="#F5F7FF"/>
<path d="M22.6667 4H20C19.632 4 19.3333 3.70133 19.3333 3.33333C19.3333 2.96533 19.632 2.66667 20 2.66667H21.0573L19.5293 1.13867C19.3387 0.948 19.2813 0.661333 19.3853 0.412C19.4867 0.162667 19.7307 0 20 0H22.6667C23.0347 0 23.3333 0.298667 23.3333 0.666667C23.3333 1.03467 23.0347 1.33333 22.6667 1.33333H21.6093L23.1373 2.86133C23.328 3.052 23.3853 3.33867 23.2813 3.588C23.18 3.83733 22.936 4 22.6667 4Z" fill="#F5F7FF"/>
</svg>
